<?xml version="1.0" encoding="iso-8859-1"?>
<!-- Generator: Adobe Illustrator 22.1.0, SVG Export Plug-In . SVG Version: 6.00 Build 0)  -->
<svg version="1.1" xmlns="http://www.w3.org/2000/svg" xmlns:xlink="http://www.w3.org/1999/xlink" x="0px" y="0px"
	 viewBox="0 0 50 50" style="enable-background:new 0 0 50 50;" xml:space="preserve">
<g id="Layer_1">
	<path d="M3,49h44V15h2V1H1v14h2V49z M45,47H5V15h40V47z M3,3h44v10H3V3z"/>
	<path d="M15,27h20c2.206,0,4-1.794,4-4s-1.794-4-4-4H15c-2.206,0-4,1.794-4,4S12.794,27,15,27z M15,21h20c1.103,0,2,0.897,2,2
		s-0.897,2-2,2H15c-1.103,0-2-0.897-2-2S13.897,21,15,21z"/>
</g>
<g>
</g>
</svg>
