<?xml version="1.0" encoding="iso-8859-1"?>
<!-- Generator: Adobe Illustrator 22.1.0, SVG Export Plug-In . SVG Version: 6.00 Build 0)  -->
<svg version="1.1" xmlns="http://www.w3.org/2000/svg" xmlns:xlink="http://www.w3.org/1999/xlink" x="0px" y="0px"
	 viewBox="0 0 50 50" style="enable-background:new 0 0 50 50;" xml:space="preserve">
<g id="Layer_1">
	<path d="M1,8.259V9c0,15.767,8.366,30.655,21.835,38.853L25,49.17l2.165-1.318C40.634,39.655,49,24.767,49,9V8.259L25,0.955
		L1,8.259z M26.126,46.145L25,46.83l-1.126-0.685C11.209,38.435,3.263,24.538,3.007,9.739L25,3.045l21.993,6.693
		C46.737,24.538,38.791,38.435,26.126,46.145z"/>
	<polygon points="15.707,25.293 14.293,26.707 22,34.414 41.707,14.707 40.293,13.293 22,31.586 	"/>
</g>
<g>
</g>
</svg>
